<svg id="Capa_1" data-name="Capa 1" xmlns="http://www.w3.org/2000/svg" viewBox="0 0 1271.38 1165.78">
  <defs>
    <style>
      .cls-1 {
        fill: none;
      }

      .cls-2 {
        fill: #f79a22;
      }

      .cls-3 {
        fill: #fcb315;
      }

      .cls-4 {
        fill: #f89c20;
      }

      .cls-5 {
        fill: #f36f29;
      }

      .cls-6 {
        fill: #faa220;
      }

      .cls-7 {
        fill: #f58220;
      }

      .cls-8 {
        fill: #ef484b;
      }

      .cls-9 {
        fill: #ef4137;
      }

      .cls-10 {
        fill: #8e1732;
      }

      .cls-11 {
        fill: #ed1f38;
      }

      .cls-12 {
        fill: #ef5a2f;
      }

      .cls-13 {
        fill: #ed1e3b;
      }

      .cls-14 {
        fill: #d81e44;
      }

      .cls-15 {
        fill: #ed1c49;
      }

      .cls-16 {
        fill: #ea1d3d;
      }

      .cls-17 {
        fill: #ee4457;
      }

      .cls-18 {
        fill: #ec1d45;
      }

      .cls-19 {
        fill: #03a8cb;
      }

      .cls-20 {
        fill: #178daa;
      }

      .cls-21 {
        fill: #1aa8b0;
      }

      .cls-22 {
        fill: #59caea;
      }

      .cls-23 {
        fill: #18abb5;
      }

      .cls-24 {
        fill: #178fa5;
      }

      .cls-25 {
        fill: #15b8d4;
      }

      .cls-26 {
        fill: #f99f1c;
      }

      .cls-27 {
        fill: #ffc315;
      }

      .cls-28 {
        fill: #f3702b;
      }

      .cls-29 {
        fill: #f58320;
      }

      .cls-30 {
        fill: #f79422;
      }

      .cls-31 {
        fill: #f9a11f;
      }

      .cls-32 {
        fill: #f37428;
      }

      .cls-33 {
        fill: #dc3626;
      }

      .cls-34 {
        fill: #1b9cb2;
      }

      .cls-35 {
        fill: #3ac6ee;
      }

      .cls-36 {
        fill: #342f4b;
      }
    </style>
  </defs>
  <title>Canaan Lion Colors</title>
  <g>
    <path class="cls-1" d="M894.76,354l-236,13v0L895,354.23Z" transform="translate(0 -6.34)"/>
    <path class="cls-1" d="M323.72,961.88A201.49,201.49,0,0,0,334,979.56l-5-11.33Z" transform="translate(0 -6.34)"/>
    <polygon class="cls-1" points="735.63 861.65 735.63 861.65 635.69 788.89 735.63 861.65"/>
    <polygon class="cls-1" points="932.43 619.36 803.33 507.22 932.43 619.36 932.43 619.36"/>
    <polygon class="cls-1" points="775 650.89 692.85 582.89 713.75 600.19 743.56 624.87 775 650.89"/>
    <path class="cls-1" d="M642.12,279.29c1.82,19.85,4.86,43.44,9.89,64.4l0.36-.54Z" transform="translate(0 -6.34)"/>
    <polygon class="cls-1" points="938.06 805.76 938.13 805.7 937.78 802.03 920.91 624.81 920.6 624.87 938.06 805.76"/>
    <path class="cls-1" d="M252.11,611s3.27-.35,8.45-1.3l-5.89-1.05A25.94,25.94,0,0,1,252.11,611Z" transform="translate(0 -6.34)"/>
    <path class="cls-1" d="M1047.93,524.72l-0.06-.19L877.33,460.89Z" transform="translate(0 -6.34)"/>
    <path class="cls-1" d="M1045.71,586.15l10.17,5.51q0.12-1.45.22-2.91l-0.1.47Z" transform="translate(0 -6.34)"/>
    <path class="cls-1" d="M865,93.23l8.4,1.08c-1.1-.31-2.21-0.61-3.33-0.91a117.36,117.36,0,0,0-16.56-5.09Z" transform="translate(0 -6.34)"/>
    <path class="cls-2" d="M656,337.69L748.87,212,731,192.23l-91.49,45.12c0.17,5.88.78,22,2.61,41.95l10.25,63.87Z" transform="translate(0 -6.34)"/>
    <path class="cls-3" d="M750.33,212.8l-0.33.43L748.87,212,656,337.69l-3.64,5.47-0.36.54c1.5,6.23,3.17,12.24,5,17.84,0,0,.63,2.07,1.68,5.43l236-13Z" transform="translate(0 -6.34)"/>
    <polygon class="cls-3" points="894.96 347.64 894.97 347.64 894.97 347.61 894.95 347.59 894.96 347.64"/>
    <path class="cls-4" d="M750.33,212.8L894.76,354l0.24,0.24,0-.25h0v-0.05l0,0L865,93.23,853.51,88.3q-2.37-.58-5-1.15Z" transform="translate(0 -6.34)"/>
    <path class="cls-5" d="M741.54,90.32c-12.08,3.42-98.24,31.73-102.09,144.62,0,0,0,.85.06,2.4L731,192.23Z" transform="translate(0 -6.34)"/>
    <path class="cls-6" d="M748.87,212l1.13,1.25,0.33-.43L848.46,87.15c-21.9-4.66-59.12-8.48-105.51,2.79,0,0-.51.12-1.42,0.38L731,192.23Z" transform="translate(0 -6.34)"/>
    <path class="cls-7" d="M895,353.94v0l0,0.25,80.53-154c-17.52-10.4-34.9-19.82-47.08-24.33,0,0,43.82-1,58.07,3.31l0.95-1.82c-6.77-12.18-38.49-62-114.07-83.06L865,93.23Z" transform="translate(0 -6.34)"/>
    <path class="cls-8" d="M1014.83,224.72c-11.53-7.49-25.46-16.3-39.3-24.52L895,354.23Z" transform="translate(0 -6.34)"/>
    <path class="cls-8" d="M988.9,180.09s-0.46-1-1.43-2.72l-0.95,1.82A15.49,15.49,0,0,1,988.9,180.09Z" transform="translate(0 -6.34)"/>
    <path class="cls-9" d="M895,354.23L658.73,367c0.93,3,2.18,7,3.61,11.49L842,447.56Z" transform="translate(0 -6.34)"/>
    <path class="cls-10" d="M1047.87,524.53q-2-5.78-4.48-11.61s-27-60.41-56.82-77.67l-9-41L877.33,460.89Z" transform="translate(0 -6.34)"/>
    <path class="cls-10" d="M1044.86,349.49l-24,16C1030.89,365.12,1039.81,360.86,1044.86,349.49Z" transform="translate(0 -6.34)"/>
    <path class="cls-11" d="M842,447.56L662.34,378.48c1.76,5.55,3.77,11.83,5.76,17.85L803.33,513.56Z" transform="translate(0 -6.34)"/>
    <path class="cls-12" d="M668.1,396.32c4.25,12.89,8.35,24.54,9.44,25,0,0,7.07,23.07-4.74,56.38l130.54,35.81Z" transform="translate(0 -6.34)"/>
    <path class="cls-13" d="M842,447.56l35.33,13.33,100.27-66.68L967,345.42s30.09,20.9,53.87,20.06l24-16a42.88,42.88,0,0,0,2.42-7.14s12.84-65.59,10.35-66c0,0,4.14-23.4-15.32-33.37,0,0-11.41-7.85-27.48-18.28L895,354.23Z" transform="translate(0 -6.34)"/>
    <polygon class="cls-14" points="877.33 454.56 842 441.22 803.33 507.22 877.33 454.56"/>
    <path class="cls-15" d="M932.43,625.7l3.24-.59,25.88,24.33,41-36.3c-9.34-18.16-23.36-36.09-42.5-52.65L803.33,513.56Z" transform="translate(0 -6.34)"/>
    <path class="cls-15" d="M991.41,569.88A152.24,152.24,0,0,1,1014,603l22.25-19.7Z" transform="translate(0 -6.34)"/>
    <path class="cls-16" d="M803.33,513.56L960.06,560.5C934,538,898.55,518,852.42,503.43c0,0,86.2,7.38,139,66.46l44.85,13.43,1.61-1.42,7.85,4.25,10.29,3.08,0.1-.47a163.79,163.79,0,0,0-8.17-64l-170.6-63.83Z" transform="translate(0 -6.34)"/>
    <path class="cls-14" d="M1013.23,698c7.33-25.7,4.4-55.59-10.67-84.89l-41,36.3Z" transform="translate(0 -6.34)"/>
    <path class="cls-14" d="M1037.87,581.89l-1.61,1.42L1014,603c9.59,19.07,16,41.75,17.27,68.71,0,0,20.77-33.6,24.61-80.06l-10.17-5.51Z" transform="translate(0 -6.34)"/>
    <polygon class="cls-17" points="855.33 636.53 873 633.37 920.6 624.87 920.6 624.87 920.91 624.81 920.6 621.51 932.43 619.36 803.33 507.22 775 650.89 855.33 636.53"/>
    <polygon class="cls-14" points="775 650.89 803.33 507.22 692.85 582.89 775 650.89"/>
    <path class="cls-18" d="M803.33,513.56L672.8,477.75c-4.68,13.19-12.32,28-24.54,43.61l44.58,67.86Z" transform="translate(0 -6.34)"/>
    <path class="cls-19" d="M935.67,625.11l-3.24.59h0l-11.83,2.15,0.31,3.3,16.86,177.22,0.35,3.66,0.82-.81-0.1,4.22C952.43,787,969.71,759,990.29,737.83a93.45,93.45,0,0,0,22.94-39.8l-51.68-48.59Z" transform="translate(0 -6.34)"/>
    <polygon class="cls-20" points="920.6 624.87 873 633.37 936.27 807.53 938.06 805.76 920.6 624.87 920.6 624.87"/>
    <polygon class="cls-21" points="873 633.37 823.61 918.48 936.27 807.53 873 633.37"/>
    <polygon class="cls-22" points="873 633.37 855.33 636.53 765.35 699.89 821.42 920.64 823.61 918.48 873 633.37"/>
    <path class="cls-23" d="M735.63,868a62.42,62.42,0,0,0-1-8.17c-4.07-21.35-2.6-51.71-43.26-102.84l-55.72,38.25Z" transform="translate(0 -6.34)"/>
    <path class="cls-23" d="M821.42,927L765.34,706.23,698.71,752c28.53,27.48,60.69,71.37,56.19,127l16,11.67,11.62-4.89s-0.17,5.23-.32,13.12l38.94,28.35Z" transform="translate(0 -6.34)"/>
    <polygon class="cls-19" points="855.33 636.53 775 650.89 743.56 624.87 765.35 699.89 855.33 636.53"/>
    <path class="cls-24" d="M598,679.23l37.69,116L691.41,757a420.39,420.39,0,0,0-33.75-37.17s19.48,11.4,41,32.16l66.64-45.74Z" transform="translate(0 -6.34)"/>
    <path class="cls-19" d="M713.75,606.53l-20.9-17.3-44.58-67.86c-0.78,1-1.58,2-2.39,3,0,0-33,49.33-69.89,88.79l22,66.08Z" transform="translate(0 -6.34)"/>
    <polygon class="cls-25" points="713.75 600.19 598 672.89 765.35 699.89 743.56 624.87 713.75 600.19"/>
    <path class="cls-25" d="M938.13,812l-0.06.06-1.79,1.77-112.66,111L821.42,927l-0.25.25,5.21,3.79-1.07.77,80.06,16c-0.92-5.48-1.42-10.46-1.71-14.54-1.19-16.51,11.27-67.71,35.19-117.77l0.1-4.22Z" transform="translate(0 -6.34)"/>
    <path class="cls-26" d="M823.95,932.76l152.79,162.48c35.47-.72,64.79-1.8,64.79-1.8s17.7-80.83-54-76.51c-60.42,3.64-77.22-39.88-82.12-69.17l-80.06-16Z" transform="translate(0 -6.34)"/>
    <path class="cls-27" d="M823.95,932.76L783.12,962c0.66,7.11,1.67,11.74,3.16,11.74,0,0,3.73,32.8,22.36,41.43,0,0,27,29.34,23.29,38.84,0,0-4.66,33.93,27.95,39.4,18.15,3,72.35,2.7,116.87,1.8Z" transform="translate(0 -6.34)"/>
    <path class="cls-28" d="M751.81,898.7l19.12-8.05-16-11.67A135.79,135.79,0,0,1,751.81,898.7Z" transform="translate(0 -6.34)"/>
    <path class="cls-28" d="M823.95,932.76l1.36-1,1.07-.77-5.21-3.79-38.94-28.35c-0.34,17.11-.63,46.78.89,63.17Z" transform="translate(0 -6.34)"/>
    <path class="cls-28" d="M329,968.23l5,11.33A173.33,173.33,0,0,0,371.66,1021L416,990.23l305.25-45.64c1.75-4.17,3.35-8.45,4.74-12.84,0,0,11.12-37.3,9.65-63.76l-99.94-72.76Z" transform="translate(0 -6.34)"/>
    <path class="cls-29" d="M611.83,1093.44H795.54s0.07-.8.13-2.25l-133.83-34.39Z" transform="translate(0 -6.34)"/>
    <path class="cls-27" d="M661.84,1056.81l133.83,34.39c0.4-10.12.25-51.72-27.45-70.85-14.88-10.28-33.61-13.43-51.79-12.52L664,1055.23Z" transform="translate(0 -6.34)"/>
    <path class="cls-30" d="M664,1055.23l52.42-47.4c-20.51,1-40.33,7.23-53.17,14.25,0,0,38.64-31.45,58-77.5L416,990.23Z" transform="translate(0 -6.34)"/>
    <polygon class="cls-31" points="664 1048.89 416 983.89 427.47 1087.09 611.83 1087.1 661.84 1050.47 664 1048.89"/>
    <path class="cls-29" d="M371.66,1021a159.28,159.28,0,0,0,14.6,10.25s-30.43,13.23-19.25,38.55,42.23,23.59,42.23,23.59h18.22L416,990.23Z" transform="translate(0 -6.34)"/>
    <path class="cls-30" d="M635.69,795.23L396.22,810.63,308.53,924.4a221.63,221.63,0,0,0,15.2,37.48l5.28,6.35Z" transform="translate(0 -6.34)"/>
    <path class="cls-3" d="M387,811.23l-1.4-.59-77,1.06q-3.12,10.89-5.77,23.13S284,831,275.1,812.17L214,813c6.83,67.18,58.65,86,89,88.24a167.75,167.75,0,0,0,5.49,23.15l87.69-113.77Z" transform="translate(0 -6.34)"/>
    <path class="cls-9" d="M318.56,782.54a293.49,293.49,0,0,0-10,29.16l77-1.06Z" transform="translate(0 -6.34)"/>
    <path class="cls-9" d="M273,770.11l3.73-5.1-47.78-20c-10.06,19.2-16.93,41-15.34,63.63,0.1,1.49.24,3,.39,4.4l61.1-.84C270.56,802.55,268.59,789,273,770.11Z" transform="translate(0 -6.34)"/>
    <path class="cls-11" d="M300.79,732.2L263,697.56c-11.13,12.13-24.15,28.51-34.06,47.42l47.78,20C281.48,758.52,290.33,746.44,300.79,732.2Z" transform="translate(0 -6.34)"/>
    <path class="cls-11" d="M385.6,810.64l1.4,0.59L329.7,758.7a241.16,241.16,0,0,0-11.14,23.84Z" transform="translate(0 -6.34)"/>
    <polygon class="cls-2" points="635.69 788.89 598 672.89 486 740.12 635.69 788.89"/>
    <polygon class="cls-32" points="387 804.89 396.22 804.3 635.69 788.89 486 740.12 387 804.89"/>
    <path class="cls-23" d="M486,746.46l112-67.23-22-66.08c-24.17,25.88-50,47.53-69.16,48.21a317.53,317.53,0,0,0-46.22,7.06L423,726.52Z" transform="translate(0 -6.34)"/>
    <polygon class="cls-33" points="486 740.12 422.96 720.18 421.5 722.44 421.15 721.94 387 804.89 486 740.12"/>
    <path class="cls-34" d="M422,726.22l-0.85,2.06,0.35,0.5,1.46-2.26,37.63-58.09c-17.7,4-38.25,10.13-57.46,19.54L400,695.23Z" transform="translate(0 -6.34)"/>
    <path class="cls-18" d="M334,687l-53.81-6.67c-2.13,1.93-4.73,4.37-7.66,7.26l51.27,13.24Z" transform="translate(0 -6.34)"/>
    <path class="cls-18" d="M422,726.22l-22-31-8.49-1.05q-4.88,2.85-9.53,6s-6.61,3.06-16.22,11.5Z" transform="translate(0 -6.34)"/>
    <path class="cls-12" d="M323.84,700.87l-51.27-13.24c-2.91,2.88-6.15,6.2-9.57,9.93l37.79,34.64C308,722.4,315.95,711.58,323.84,700.87Z" transform="translate(0 -6.34)"/>
    <path class="cls-12" d="M387,811.23l34.15-82.95,0.85-2.06L365.76,711.7c-10.09,8.85-23.5,23.63-36.07,47Z" transform="translate(0 -6.34)"/>
    <path class="cls-35" d="M362.57,648.68L310.89,652a335.8,335.8,0,0,1-24.62,23.15s-2.28,1.84-6,5.26L334,687C345.32,671.78,355.69,657.8,362.57,648.68Z" transform="translate(0 -6.34)"/>
    <path class="cls-35" d="M400,695.23l3.13-7.26c-3.94,1.93-7.83,4-11.62,6.21Z" transform="translate(0 -6.34)"/>
    <path class="cls-25" d="M370.81,638.06s1.89-2.82,5-7.75l-16.12-2.94-24.12-4.31A318.33,318.33,0,0,1,310.89,652l51.69-3.29C367,642.85,369.94,639,370.81,638.06Z" transform="translate(0 -6.34)"/>
    <path class="cls-19" d="M254.67,608.61l5.89,1.05c16.78-3.05,53.61-12.3,64.52-35.82,0,0,6.82-8.13,9.07-21.87L260.22,585.6C261.61,592.09,261.71,601.23,254.67,608.61Z" transform="translate(0 -6.34)"/>
    <path class="cls-19" d="M375.8,630.31c11.65-18.49,40.58-66.93,52.73-110.11l-6.67-20.28-35,16.86q-1,4-2.24,8.38l3.11,2.46-4.42,2a299.12,299.12,0,0,1-47.73,93.43l24.12,4.31Z" transform="translate(0 -6.34)"/>
    <path class="cls-25" d="M421.86,499.92l6.67,20.28a148,148,0,0,0,5.1-25.94Z" transform="translate(0 -6.34)"/>
    <path class="cls-28" d="M397.1,353.91c-8.27-11.18-35.76-44.25-72.87-46.4,0,0-27.59.36-51,19.34l107.94,33.22Z" transform="translate(0 -6.34)"/>
    <path class="cls-2" d="M433.63,494.26a75.59,75.59,0,0,0-.41-19.31s0-75.95-33.54-117.37c0,0-.89-1.37-2.58-3.66l-15.92,6.17,13.7,4.22L375.22,384.2c7.3,13.44,18.83,42.71,18.19,91,0,0-.24,16.37-6.56,41.61l35-16.86Z" transform="translate(0 -6.34)"/>
    <path class="cls-23" d="M394.88,364.29l-13.7-4.22L273.24,326.86c-13.34,10.82-25.32,27.69-30.05,54,0,0-8.9,30.63-4.64,73.39L300.1,427.8l-17.25-18.52s-9-10.07-7.45-12.08c0,0,3.11-5.18,22,1.15,0,0-14.59-33.76-5.28-44.88,8.43-10.07,33.23-22.82,76.9,21.46a12.64,12.64,0,0,1,.84.95,57.11,57.11,0,0,1,5.3,8.32Z" transform="translate(0 -6.34)"/>
    <path class="cls-24" d="M243.09,482.27l73.59,6a37.69,37.69,0,0,0-7.74-7.67s-11.8-17.26-36.33-29.34c0,0,27.33-4.32,50.31,14.67,0,0,6.52-3.74-6.83-21l-16-17.16-61.56,26.46A229.3,229.3,0,0,0,243.09,482.27Z" transform="translate(0 -6.34)"/>
    <path class="cls-25" d="M384.6,525.16q-0.63,2.2-1.31,4.47l4.42-2Z" transform="translate(0 -6.34)"/>
    <path class="cls-25" d="M243.19,482.71s-24.4,18.64-13.22,39.35c0,0,28.67,53.51,27.43,55.24a35.75,35.75,0,0,1,2.83,8.3L334.15,552a55.58,55.58,0,0,0-.06-18.12s-4.27-28.54-17.41-45.56l-73.59-6Z" transform="translate(0 -6.34)"/>
    <path class="cls-36" d="M0,6.34V1172.12H1271.38V6.34H0Zm873.4,88c75.58,21.06,107.3,70.88,114.07,83.06,1,1.75,1.43,2.72,1.43,2.72a15.49,15.49,0,0,0-2.38-.91c-14.25-4.32-58.07-3.31-58.07-3.31,12.17,4.51,29.55,13.94,47.08,24.33,13.84,8.21,27.77,17,39.3,24.52,16.07,10.43,27.48,18.28,27.48,18.28,19.46,10,15.32,33.37,15.32,33.37,2.48,0.38-10.35,66-10.35,66a42.88,42.88,0,0,1-2.42,7.14c-5,11.37-14,15.63-24,16C997,366.32,967,345.42,967,345.42l10.65,48.8,9,41c29.81,17.26,56.82,77.67,56.82,77.67q2.51,5.82,4.48,11.61l0.06,0.19a163.79,163.79,0,0,1,8.17,64q-0.1,1.46-.22,2.91c-3.84,46.47-24.61,80.06-24.61,80.06-1.31-27-7.67-49.64-17.27-68.71a152.24,152.24,0,0,0-22.6-33.13c-52.8-59.08-139-66.46-139-66.46C898.55,518,934,538,960.06,560.5c19.14,16.56,33.15,34.49,42.5,52.65,15.07,29.3,18,59.2,10.67,84.89a93.45,93.45,0,0,1-22.94,39.8C969.71,759,952.43,787,938.85,815.45c-23.92,50.06-36.38,101.26-35.19,117.77,0.29,4.08.8,9.06,1.71,14.54,4.91,29.29,21.7,72.81,82.12,69.17,71.73-4.32,54,76.51,54,76.51s-29.32,1.08-64.79,1.8c-44.51.9-98.72,1.25-116.87-1.8-32.6-5.48-27.95-39.4-27.95-39.4,3.73-9.49-23.29-38.84-23.29-38.84-18.63-8.63-22.36-41.43-22.36-41.43-1.49,0-2.5-4.62-3.16-11.74-1.53-16.4-1.23-46.06-.89-63.17,0.16-7.9.32-13.12,0.32-13.12l-11.62,4.89-19.12,8.05A135.79,135.79,0,0,0,754.89,879c4.51-55.64-27.66-99.53-56.19-127-21.56-20.77-41-32.16-41-32.16A420.39,420.39,0,0,1,691.41,757c40.67,51.13,39.2,81.49,43.26,102.84a62.42,62.42,0,0,1,1,8.17h0c1.47,26.45-9.65,63.76-9.65,63.76-1.39,4.39-3,8.68-4.74,12.84-19.35,46-58,77.5-58,77.5,12.84-7,32.66-13.22,53.17-14.25,18.18-.91,36.91,2.25,51.79,12.52,27.71,19.13,27.85,60.72,27.45,70.85-0.06,1.45-.13,2.25-0.13,2.25H409.24s-31.05,1.73-42.23-23.59,19.25-38.55,19.25-38.55a159.28,159.28,0,0,1-14.6-10.25A173.33,173.33,0,0,1,334,979.56a201.49,201.49,0,0,1-10.31-17.67,221.63,221.63,0,0,1-15.2-37.48A167.75,167.75,0,0,1,303,901.25c-30.4-2.25-82.21-21.06-89-88.24-0.15-1.45-.28-2.91-0.39-4.4C212,786,218.88,764.17,228.95,745c9.91-18.91,22.93-35.28,34.06-47.42,3.42-3.73,6.66-7.05,9.57-9.93s5.53-5.33,7.66-7.26c3.76-3.41,6-5.26,6-5.26A335.8,335.8,0,0,0,310.89,652a318.33,318.33,0,0,0,24.68-28.9,299.12,299.12,0,0,0,47.73-93.43q0.69-2.27,1.31-4.47,1.23-4.34,2.24-8.38c6.32-25.24,6.56-41.61,6.56-41.61,0.64-48.26-10.89-77.53-18.19-91a57.11,57.11,0,0,0-5.3-8.32,12.64,12.64,0,0,0-.84-0.95c-43.68-44.29-68.47-31.53-76.9-21.46-9.32,11.12,5.28,44.88,5.28,44.88-18.94-6.33-22-1.15-22-1.15-1.55,2,7.45,12.08,7.45,12.08L300.1,427.8l16,17.16c13.35,17.26,6.83,21,6.83,21-23-19-50.31-14.67-50.31-14.67,24.53,12.08,36.33,29.34,36.33,29.34a37.69,37.69,0,0,1,7.74,7.67c13.14,17,17.41,45.56,17.41,45.56a55.58,55.58,0,0,1,.06,18.12c-2.25,13.74-9.07,21.87-9.07,21.87-10.91,23.52-47.75,32.76-64.52,35.82-5.18.94-8.45,1.3-8.45,1.3a25.94,25.94,0,0,0,2.56-2.35c7-7.38,6.94-16.52,5.55-23a35.75,35.75,0,0,0-2.83-8.3c1.24-1.73-27.43-55.24-27.43-55.24-11.18-20.71,13.22-39.35,13.22-39.35l-0.1-.44a229.3,229.3,0,0,1-4.54-28c-4.26-42.76,4.64-73.39,4.64-73.39,4.73-26.32,16.72-43.19,30.05-54,23.4-19,51-19.34,51-19.34,37.12,2.15,64.6,35.22,72.87,46.4,1.69,2.29,2.58,3.66,2.58,3.66,33.54,41.43,33.54,117.37,33.54,117.37a75.59,75.59,0,0,1,.41,19.31,148,148,0,0,1-5.1,25.94c-12.16,43.19-41.08,91.62-52.73,110.11-3.11,4.93-5,7.75-5,7.75-0.87.94-3.84,4.79-8.24,10.62-6.88,9.12-17.26,23.1-28.53,38.37l-10.2,13.83c-7.89,10.71-15.85,21.53-23,31.33-10.46,14.24-19.31,26.32-24.06,32.8l-3.73,5.1c-4.4,18.93-2.43,32.45,2.1,42.06,8.9,18.87,27.71,22.67,27.71,22.67q2.63-12.26,5.77-23.13a293.49,293.49,0,0,1,10-29.16A241.16,241.16,0,0,1,329.7,758.7c12.57-23.37,26-38.15,36.07-47,9.62-8.44,16.22-11.5,16.22-11.5q4.64-3.18,9.53-6c3.79-2.22,7.68-4.28,11.62-6.21,19.2-9.41,39.75-15.55,57.46-19.54a317.53,317.53,0,0,1,46.22-7.06c19.19-.68,45-22.33,69.16-48.21,36.85-39.46,69.89-88.79,69.89-88.79,0.82-1,1.61-2,2.39-3,12.21-15.61,19.86-30.41,24.54-43.61,11.81-33.31,4.74-56.38,4.74-56.38-1.09-.51-5.19-12.16-9.44-25-2-6-4-12.3-5.76-17.85-1.42-4.49-2.68-8.5-3.61-11.49v0c-1-3.37-1.68-5.43-1.68-5.43-1.87-5.6-3.54-11.6-5-17.84-5-21-8.07-44.56-9.89-64.4s-2.43-36.07-2.61-41.95c0-1.55-.06-2.4-0.06-2.4,3.85-112.88,90-141.2,102.09-144.62,0.91-.26,1.42-0.38,1.42-0.38,46.38-11.27,83.6-7.45,105.51-2.79q2.68,0.57,5,1.15a117.36,117.36,0,0,1,16.56,5.09C871.19,93.69,872.29,94,873.4,94.3Z" transform="translate(0 -6.34)"/>
  </g>
</svg>
