<svg id="Capa_1" data-name="Capa 1" xmlns="http://www.w3.org/2000/svg" viewBox="0 0 2235.06 2681.47">
  <defs>
    <style>
      .cls-1 {
        fill: none;
      }

      .cls-2 {
        fill: #f79a22;
      }

      .cls-3 {
        fill: #fcb315;
      }

      .cls-4 {
        fill: #f89c20;
      }

      .cls-5 {
        fill: #f36f29;
      }

      .cls-6 {
        fill: #faa220;
      }

      .cls-7 {
        fill: #f58220;
      }

      .cls-8 {
        fill: #ef484b;
      }

      .cls-9 {
        fill: #ef4137;
      }

      .cls-10 {
        fill: #8e1732;
      }

      .cls-11 {
        fill: #ed1f38;
      }

      .cls-12 {
        fill: #ef5a2f;
      }

      .cls-13 {
        fill: #ed1e3b;
      }

      .cls-14 {
        fill: #d81e44;
      }

      .cls-15 {
        fill: #ed1c49;
      }

      .cls-16 {
        fill: #ea1d3d;
      }

      .cls-17 {
        fill: #ee4457;
      }

      .cls-18 {
        fill: #ec1d45;
      }

      .cls-19 {
        fill: #03a8cb;
      }

      .cls-20 {
        fill: #178daa;
      }

      .cls-21 {
        fill: #1aa8b0;
      }

      .cls-22 {
        fill: #59caea;
      }

      .cls-23 {
        fill: #18abb5;
      }

      .cls-24 {
        fill: #178fa5;
      }

      .cls-25 {
        fill: #15b8d4;
      }

      .cls-26 {
        fill: #f99f1c;
      }

      .cls-27 {
        fill: #ffc315;
      }

      .cls-28 {
        fill: #f3702b;
      }

      .cls-29 {
        fill: #f58320;
      }

      .cls-30 {
        fill: #f79422;
      }

      .cls-31 {
        fill: #f9a11f;
      }

      .cls-32 {
        fill: #f37428;
      }

      .cls-33 {
        fill: #dc3626;
      }

      .cls-34 {
        fill: #1b9cb2;
      }

      .cls-35 {
        fill: #3ac6ee;
      }
    </style>
  </defs>
  <title>LeonColoresSinFondo</title>
  <g>
    <path class="cls-1" d="M2451.13,1379.82L2478,1394.4q0.32-3.83.58-7.69l-0.26,1.26Z" transform="translate(-248.58 -47.24)"/>
    <polygon class="cls-1" points="1902.78 1437.25 1561.16 1140.5 1902.78 1437.25 1902.78 1437.25"/>
    <path class="cls-1" d="M2457,1217.27l-0.17-.51-451.28-168.39Z" transform="translate(-248.58 -47.24)"/>
    <polygon class="cls-1" points="1382 2078.39 1382 2078.39 1117.53 1885.86 1382 2078.39"/>
    <path class="cls-1" d="M540.58,2374.1a533.18,533.18,0,0,0,27.29,46.77l-13.32-30Z" transform="translate(-248.58 -47.24)"/>
    <polygon class="cls-1" points="1917.68 1930.49 1917.85 1930.33 1916.93 1920.63 1872.3 1451.66 1871.47 1451.81 1917.68 1930.49"/>
    <polygon class="cls-1" points="1486.18 1520.68 1268.78 1340.73 1324.1 1386.52 1402.98 1451.81 1486.18 1520.68"/>
    <path class="cls-1" d="M1972.92,75.44l22.22,2.85c-2.91-.81-5.84-1.62-8.8-2.4,0,0-15.53-6.61-43.81-13.48Z" transform="translate(-248.58 -47.24)"/>
    <path class="cls-1" d="M1383.12,567.8c4.82,52.52,12.85,115,26.17,170.43l0.94-1.42Z" transform="translate(-248.58 -47.24)"/>
    <path class="cls-1" d="M2051.67,765.48L1427.08,799.8l0,0.06,625.22-33.75Z" transform="translate(-248.58 -47.24)"/>
    <path class="cls-1" d="M351.08,1445.48s8.65-.93,22.36-3.43l-15.6-2.79A68.64,68.64,0,0,1,351.08,1445.48Z" transform="translate(-248.58 -47.24)"/>
    <path class="cls-2" d="M1419.86,722.34l245.75-332.66-47.29-52.26L1376.23,456.8c0.46,15.55,2.06,58.25,6.9,111l27.12,169Z" transform="translate(-248.58 -47.24)"/>
    <path class="cls-3" d="M1669.49,391.85l-0.89,1.13-3-3.31L1419.86,722.34l-9.62,14.47-0.94,1.42c4,16.5,8.38,32.38,13.33,47.2,0,0,1.68,5.47,4.45,14.37l624.59-34.33Z" transform="translate(-248.58 -47.24)"/>
    <polygon class="cls-3" points="1803.62 718.21 1803.65 718.21 1803.64 718.12 1803.6 718.08 1803.62 718.21"/>
    <path class="cls-4" d="M1669.49,391.85l382.17,373.62,0.64,0.63-0.08-.66h0l0-.13,0,0-79.3-689.92-30.4-13q-6.27-1.52-13.36-3Z" transform="translate(-248.58 -47.24)"/>
    <path class="cls-5" d="M1646.22,67.76c-32,9.05-260,84-270.16,382.69,0,0,0,2.24.16,6.35l242.1-119.39Z" transform="translate(-248.58 -47.24)"/>
    <path class="cls-6" d="M1665.62,389.68l3,3.31,0.89-1.13L1929.17,59.37c-58-12.33-156.46-22.44-279.19,7.38,0,0-1.34.32-3.75,1l-27.9,269.66Z" transform="translate(-248.58 -47.24)"/>
    <path class="cls-7" d="M2052.22,765.35v0.09l0.08,0.66L2265.4,358.52C2219,331,2173,306.07,2140.83,294.13c0,0,115.95-2.68,153.66,8.76l2.51-4.8c-17.92-32.24-101.86-164.08-301.86-219.8l-22.22-2.85Z" transform="translate(-248.58 -47.24)"/>
    <path class="cls-8" d="M2300.79,305.3s-1.22-2.58-3.79-7.21l-2.51,4.8A41,41,0,0,1,2300.79,305.3Z" transform="translate(-248.58 -47.24)"/>
    <path class="cls-8" d="M2369.41,423.4c-30.52-19.81-67.38-43.14-104-64.88L2052.31,766.1Z" transform="translate(-248.58 -47.24)"/>
    <path class="cls-9" d="M2052.31,766.1l-625.22,33.75c2.46,7.91,5.78,18.52,9.55,30.41l475.42,182.81Z" transform="translate(-248.58 -47.24)"/>
    <path class="cls-10" d="M2456.84,1216.76q-5.23-15.29-11.86-30.71s-71.49-159.87-150.37-205.54l-23.7-108.58-265.34,176.45Z" transform="translate(-248.58 -47.24)"/>
    <path class="cls-10" d="M2448.88,753.56l-63.61,42.3C2411.9,794.92,2435.52,783.66,2448.88,753.56Z" transform="translate(-248.58 -47.24)"/>
    <path class="cls-11" d="M1912.06,1013.09L1436.64,830.27c4.65,14.68,10,31.3,15.23,47.23l357.87,310.24Z" transform="translate(-248.58 -47.24)"/>
    <path class="cls-12" d="M1451.87,877.5c11.24,34.11,22.1,64.94,25,66.28,0,0,18.71,61-12.55,149.21l345.43,94.75Z" transform="translate(-248.58 -47.24)"/>
    <path class="cls-13" d="M1912.06,1013.09l93.5,35.28L2270.9,871.92l-28.18-129.13s79.61,55.3,142.55,53.07l63.61-42.3a113.47,113.47,0,0,0,6.39-18.89s34-173.58,27.39-174.59c0,0,11-61.92-40.54-88.31,0,0-30.2-20.76-72.72-48.37l-317.1,342.7Z" transform="translate(-248.58 -47.24)"/>
    <polygon class="cls-14" points="1756.98 1001.13 1663.48 965.85 1561.16 1140.5 1756.98 1001.13"/>
    <path class="cls-15" d="M2307.44,1336.78a402.85,402.85,0,0,1,59.8,87.66l58.88-52.12Z" transform="translate(-248.58 -47.24)"/>
    <path class="cls-15" d="M2151.36,1484.49l8.56-1.55,68.49,64.39,108.53-96.06c-24.72-48.06-61.81-95.5-112.46-139.32l-414.75-124.2Z" transform="translate(-248.58 -47.24)"/>
    <path class="cls-16" d="M1809.74,1187.74l414.75,124.2c-68.88-59.59-162.79-112.48-284.86-151,0,0,228.09,19.53,367.81,175.86l118.68,35.54,4.25-3.76,20.76,11.25,27.22,8.15,0.26-1.26c3.45-52.05-1.31-109.87-21.61-169.45l-451.44-168.9Z" transform="translate(-248.58 -47.24)"/>
    <path class="cls-14" d="M2365.18,1675.91c19.39-68,11.65-147.11-28.24-224.65l-108.53,96.06Z" transform="translate(-248.58 -47.24)"/>
    <path class="cls-14" d="M2430.37,1368.56l-4.25,3.76-58.88,52.12c25.39,50.47,42.23,110.48,45.69,181.82,0,0,55-88.9,65.12-211.86l-26.91-14.59Z" transform="translate(-248.58 -47.24)"/>
    <polygon class="cls-17" points="1698.76 1482.68 1745.51 1474.33 1871.47 1451.81 1871.47 1451.81 1872.3 1451.66 1871.47 1442.93 1902.78 1437.25 1561.16 1140.5 1486.18 1520.68 1698.76 1482.68"/>
    <polygon class="cls-14" points="1486.18 1520.68 1561.16 1140.5 1268.78 1340.73 1486.18 1520.68"/>
    <path class="cls-18" d="M1809.74,1187.74L1464.31,1093c-12.38,34.92-32.61,74.09-64.93,115.4l118,179.59Z" transform="translate(-248.58 -47.24)"/>
    <path class="cls-19" d="M2159.92,1482.93l-8.56,1.55h0l-31.31,5.68,0.83,8.74,44.63,469,0.92,9.69,2.16-2.13-0.27,11.17c35.95-75.22,81.67-149.47,136.13-205.39a247.29,247.29,0,0,0,60.72-105.31l-136.77-128.59Z" transform="translate(-248.58 -47.24)"/>
    <polygon class="cls-20" points="1871.47 1451.81 1745.51 1474.33 1912.93 1935.17 1917.68 1930.49 1871.47 1451.81 1871.47 1451.81"/>
    <polygon class="cls-21" points="1745.51 1474.33 1614.81 2228.78 1912.93 1935.17 1745.51 1474.33"/>
    <polygon class="cls-22" points="1745.51 1474.33 1698.76 1482.68 1460.63 1650.34 1609.02 2234.49 1614.81 2228.78 1745.51 1474.33"/>
    <path class="cls-23" d="M1630.58,2125.63a165.18,165.18,0,0,0-2.52-21.61c-10.76-56.51-6.87-136.83-114.49-272.14l-147.46,101.22Z" transform="translate(-248.58 -47.24)"/>
    <path class="cls-23" d="M1857.6,2281.73l-148.39-584.15-176.33,121c75.5,72.72,160.61,188.86,148.68,336.09L1724,2185.6l30.76-13s-0.44,13.83-.85,34.72l103,75Z" transform="translate(-248.58 -47.24)"/>
    <polygon class="cls-19" points="1698.76 1482.68 1486.18 1520.68 1402.98 1451.81 1460.63 1650.34 1698.76 1482.68"/>
    <path class="cls-24" d="M1266.38,1626.13l99.73,307,147.46-101.22c-23.84-30-53.13-62.64-89.3-98.36,0,0,51.55,30.16,108.61,85.11l176.33-121Z" transform="translate(-248.58 -47.24)"/>
    <path class="cls-19" d="M1572.68,1433.76L1517.36,1388l-118-179.59c-2.07,2.64-4.17,5.29-6.33,7.95,0,0-87.45,130.53-184.95,235l58.28,174.85Z" transform="translate(-248.58 -47.24)"/>
    <polygon class="cls-25" points="1324.1 1386.52 1017.8 1578.89 1460.63 1650.34 1402.98 1451.81 1324.1 1386.52"/>
    <path class="cls-25" d="M2166.44,1977.56l-0.17.17-4.75,4.68L1863.4,2276l-5.8,5.71-0.67.66,13.79,10-2.84,2,211.86,42.29c-2.43-14.5-3.76-27.69-4.54-38.49-3.14-43.7,29.82-179.19,93.13-311.66l0.27-11.17Z" transform="translate(-248.58 -47.24)"/>
    <path class="cls-26" d="M1864.28,2297l404.32,430c93.86-1.91,171.44-4.76,171.44-4.76s46.84-213.89-143-202.47c-159.89,9.62-204.33-105.54-217.32-183l-211.86-42.29Z" transform="translate(-248.58 -47.24)"/>
    <path class="cls-27" d="M1864.28,2297l-108,77.5c1.75,18.83,4.41,31.06,8.36,31.06,0,0,9.86,86.78,59.16,109.62,0,0,71.49,77.65,61.63,102.77,0,0-12.33,89.78,74,104.27,48,8.06,191.46,7.15,309.25,4.76Z" transform="translate(-248.58 -47.24)"/>
    <path class="cls-28" d="M1673.4,2206.91l50.59-21.3-42.43-30.89A359.33,359.33,0,0,1,1673.4,2206.91Z" transform="translate(-248.58 -47.24)"/>
    <path class="cls-28" d="M1864.28,2297l3.6-2.58,2.84-2-13.79-10-103-75c-0.9,45.28-1.68,123.78,2.36,167.17Z" transform="translate(-248.58 -47.24)"/>
    <path class="cls-28" d="M554.54,2390.89l13.32,30c25.15,38.42,57.67,76.78,99.57,109.77l117.33-81.53,807.75-120.79c4.63-11,8.86-22.36,12.54-34,0,0,29.42-98.71,25.53-168.71l-264.47-192.53Z" transform="translate(-248.58 -47.24)"/>
    <path class="cls-29" d="M1303,2722.23l486.16,0s0.18-2.13.33-6l-354.14-91Z" transform="translate(-248.58 -47.24)"/>
    <path class="cls-27" d="M1435.31,2625.3l354.14,91c1.05-26.78.67-136.86-72.64-187.47-39.39-27.19-88.94-35.55-137.06-33.13L1441,2621.11Z" transform="translate(-248.58 -47.24)"/>
    <path class="cls-30" d="M1441,2621.11l138.72-125.42c-54.27,2.72-106.72,19.14-140.69,37.7,0,0,102.26-83.23,153.45-205.07L784.77,2449.11Z" transform="translate(-248.58 -47.24)"/>
    <polygon class="cls-31" points="1192.45 2573.88 536.18 2401.87 566.53 2674.96 1054.38 2674.99 1186.73 2578.07 1192.45 2573.88"/>
    <path class="cls-29" d="M667.44,2530.64a421.5,421.5,0,0,0,38.64,27.11s-80.53,35-50.95,102,111.76,62.43,111.76,62.43h48.23l-30.34-273.09Z" transform="translate(-248.58 -47.24)"/>
    <path class="cls-30" d="M1366.11,1933.09l-633.69,40.77-232.06,301a586.5,586.5,0,0,0,40.21,99.19l14,16.79Z" transform="translate(-248.58 -47.24)"/>
    <path class="cls-3" d="M708,1975.43l-3.71-1.55-203.83,2.82q-8.26,28.82-15.27,61.21s-49.77-10-73.33-60l-161.69,2.23c18.08,177.77,155.2,227.53,235.64,233.49,0,0,3.36,24.37,14.52,61.27l232.06-301Z" transform="translate(-248.58 -47.24)"/>
    <path class="cls-9" d="M406.34,1866.62l9.88-13.49-126.45-53c-26.63,50.8-44.79,108.49-40.59,168.38,0.28,4,.63,7.82,1,11.65l161.69-2.23C399.9,1952.48,394.7,1916.71,406.34,1866.62Z" transform="translate(-248.58 -47.24)"/>
    <path class="cls-9" d="M526.91,1899.52a776.65,776.65,0,0,0-26.42,77.18l203.83-2.82Z" transform="translate(-248.58 -47.24)"/>
    <path class="cls-11" d="M479.9,1766.32l-100-91.67c-29.45,32.11-63.89,75.44-90.13,125.47l126.45,53C428.79,1836,452.22,1804,479.9,1766.32Z" transform="translate(-248.58 -47.24)"/>
    <path class="cls-11" d="M704.32,1973.88l3.71,1.55-151.64-139a638.16,638.16,0,0,0-29.47,63.09Z" transform="translate(-248.58 -47.24)"/>
    <polygon class="cls-2" points="1117.53 1885.86 1017.8 1578.89 721.42 1756.8 1117.53 1885.86"/>
    <polygon class="cls-32" points="459.44 1928.2 483.84 1926.63 1117.53 1885.86 721.42 1756.8 459.44 1928.2"/>
    <path class="cls-23" d="M970,1804l296.38-177.91-58.28-174.85c-64,68.5-132.24,125.77-183,127.58,0,0-52.86,3.06-122.32,18.69l-99.57,153.73Z" transform="translate(-248.58 -47.24)"/>
    <polygon class="cls-33" points="721.42 1756.8 554.6 1704.05 550.73 1710.02 549.81 1708.7 459.44 1928.2 721.42 1756.8"/>
    <path class="cls-34" d="M800.64,1750.48l-2.25,5.46,0.92,1.32,3.87-6,99.57-153.73c-46.84,10.54-101.22,26.81-152,51.7l-8.29,19.22Z" transform="translate(-248.58 -47.24)"/>
    <path class="cls-18" d="M567.88,1646.82L425.5,1629.16c-5.63,5.11-12.52,11.57-20.27,19.22l135.67,35C550,1671.07,559,1658.8,567.88,1646.82Z" transform="translate(-248.58 -47.24)"/>
    <path class="cls-18" d="M800.64,1750.48l-58.22-82L720,1665.68q-12.9,7.54-25.21,15.95s-17.48,8.1-42.93,30.42Z" transform="translate(-248.58 -47.24)"/>
    <path class="cls-12" d="M540.89,1683.41l-135.67-35c-7.71,7.61-16.28,16.42-25.33,26.28l100,91.67C499,1740.38,520,1711.75,540.89,1683.41Z" transform="translate(-248.58 -47.24)"/>
    <path class="cls-12" d="M708,1975.43l90.37-219.5,2.25-5.46-148.82-38.43c-26.71,23.43-62.19,62.53-95.44,124.38Z" transform="translate(-248.58 -47.24)"/>
    <path class="cls-35" d="M643.39,1545.29L506.61,1554a888.6,888.6,0,0,1-65.14,61.26s-6,4.88-16,13.91l142.39,17.66C597.72,1606.42,625.18,1569.43,643.39,1545.29Z" transform="translate(-248.58 -47.24)"/>
    <path class="cls-35" d="M742.43,1668.47l8.29-19.22c-10.43,5.11-20.72,10.57-30.75,16.44Z" transform="translate(-248.58 -47.24)"/>
    <path class="cls-25" d="M665.18,1517.2s5-7.45,13.22-20.51l-42.65-7.78-63.83-11.4a842.37,842.37,0,0,1-65.3,76.48l136.77-8.7C655,1529.87,662.88,1519.68,665.18,1517.2Z" transform="translate(-248.58 -47.24)"/>
    <path class="cls-19" d="M357.85,1439.27l15.6,2.79c44.39-8.08,141.86-32.54,170.74-94.78,0,0,18-21.51,24-57.88l-195.64,89C376.22,1395.55,376.47,1419.73,357.85,1439.27Z" transform="translate(-248.58 -47.24)"/>
    <path class="cls-19" d="M678.39,1496.69c30.83-48.94,107.37-177.1,139.54-291.39l-17.65-53.66-92.67,44.61q-2.68,10.7-5.93,22.18l8.23,6.51-11.7,5.32c-21.1,69.82-58.83,157.78-126.3,247.24l63.83,11.4Z" transform="translate(-248.58 -47.24)"/>
    <path class="cls-25" d="M800.29,1151.65l17.65,53.66c6.69-23.77,11.45-46.92,13.49-68.65Z" transform="translate(-248.58 -47.24)"/>
    <path class="cls-28" d="M734.76,765.27c-21.88-29.58-94.62-117.09-192.84-122.77,0,0-73,.94-134.93,51.19l285.64,87.91Z" transform="translate(-248.58 -47.24)"/>
    <path class="cls-2" d="M831.42,1136.66c1.71-18.21,1.52-35.41-1.08-51.1,0,0,0-201-88.74-310.6,0,0-2.35-3.63-6.83-9.69l-42.13,16.32,36.25,11.16-52,52.67c19.3,35.57,49.84,113,48.13,240.72,0,0-.63,43.31-17.36,110.11l92.67-44.61Z" transform="translate(-248.58 -47.24)"/>
    <path class="cls-23" d="M728.88,792.75l-36.25-11.16L407,693.68c-35.3,28.64-67,73.29-79.53,142.94,0,0-23.55,81-12.28,194.21l162.9-70-45.64-49s-23.83-26.65-19.72-32c0,0,8.22-13.7,58.34,3,0,0-38.62-89.33-14-118.76,22.32-26.65,87.93-60.4,203.5,56.79a33.46,33.46,0,0,1,2.24,2.51c2.3,2.81,7.52,10,14,22Z" transform="translate(-248.58 -47.24)"/>
    <path class="cls-24" d="M327.2,1104.93l194.75,16a99.73,99.73,0,0,0-20.48-20.29s-31.23-45.68-96.14-77.65c0,0,72.31-11.42,133.12,38.83,0,0,17.26-9.9-18.08-55.58l-42.29-45.4-162.9,70A606.77,606.77,0,0,0,327.2,1104.93Z" transform="translate(-248.58 -47.24)"/>
    <path class="cls-25" d="M701.68,1218.44q-1.65,5.82-3.47,11.83l11.7-5.32Z" transform="translate(-248.58 -47.24)"/>
    <path class="cls-25" d="M327.46,1106.11s-64.58,49.31-35,104.13c0,0,75.87,141.6,72.59,146.17a94.61,94.61,0,0,1,7.49,22l195.64-89a147.07,147.07,0,0,0-.16-47.95s-11.31-75.52-46.08-120.55l-194.75-16C327.29,1105.33,327.37,1105.72,327.46,1106.11Z" transform="translate(-248.58 -47.24)"/>
  </g>
</svg>
