<svg id="Capa_1" data-name="Capa 1" xmlns="http://www.w3.org/2000/svg" viewBox="0 0 883.56 1060">
  <defs>
    <style>
      .cls-1 {
        fill: #fcb315;
      }
    </style>
  </defs>
  <title>Only Lion Orange</title>
  <path class="cls-1" d="M917,420.74C948.17,438.8,976.43,502,976.43,502c37,85.76-12.67,166.1-12.67,166.1C955.95,507.41,776.66,492,776.66,492c174.42,55.08,203.67,184.16,144.23,245.21s-92.56,177.3-90.63,204.5,12.67,92.08,87.69,87.56,56.51,80.05,56.51,80.05-155.91,5.73-190,0-29.22-41.22-29.22-41.22c3.9-9.93-24.35-40.63-24.35-40.63-19.48-9-23.38-43.32-23.38-43.32-6.83,0-3.9-92.08-3.9-92.08l-32.29,13.45c26.45-114.09-98.48-187.15-98.48-187.15,78.81,77.84,75.34,119.18,80.56,146.46s-9.09,75.34-9.09,75.34c-17.54,55.38-65.63,94.5-65.63,94.5,25.35-13.83,76.66-24.67,109.78-1.8S717,1109.4,717,1109.4H313.09s-32.48,1.8-44.18-24.67S289,1044.36,289,1044.36c-74.72-46.34-87-136-87-136-32.48-2.39-88.37-22.87-93.56-96.87s76-139.65,76-139.65c110.32-93.91,112.07-209.16,112.07-209.16,0.89-67.46-21-99.56-24.57-103.87a13.24,13.24,0,0,0-.89-1c-45.74-46.34-71.63-33-80.45-22.44-9.74,11.62,5.52,47,5.52,47-19.8-6.62-23.06-1.21-23.06-1.21-1.61,2.1,7.8,12.65,7.8,12.65l34.77,37.32c14,18.06,7.16,22,7.16,22a71.84,71.84,0,0,0-52.63-15.34,104.94,104.94,0,0,1,38,30.7c20.13,14.45,26.32,55.67,26.32,55.67A54.38,54.38,0,0,1,225,565.91c-14.93,32.29-76.34,38.83-76.34,38.83,16.9-13.45,5.52-35.22,5.52-35.22,1.29-1.8-28.68-57.77-28.68-57.77-11.71-21.66,13.83-41.17,13.83-41.17-13.64-59.57,0-106.53,0-106.53,13.64-75.83,84.79-76.74,84.79-76.74,46.77,2.69,78.92,52.36,78.92,52.36,35,43.32,35,122.78,35,122.78,9.74,58.69-65.28,170.62-65.28,170.62-5.84,6.32-102.25,138.12-102.25,138.12-13.62,58.55,31.24,67.65,31.24,67.65,24.22-113.74,82.8-140.94,82.8-140.94,52.63-36.11,130.58-40.63,130.58-40.63C465.82,655.46,560.62,514,560.62,514c48.08-59,33.12-107.63,33.12-107.63-2.69-1.21-21.53-62.59-21.53-62.59-16.9-50.56-18.41-132.41-18.41-132.41,4.33-127,108.28-151.68,108.28-151.68,79.27-19.27,133,3.61,133,3.61,93.13,24.49,124.32,90.68,124.32,90.68-11.25-5.62-63.23-4.41-63.23-4.41,36.81,13.64,119.09,70.23,119.09,70.23,20.37,10.44,16.14,35,16.14,35,2.69,0.4-10.76,69-10.76,69-13,52.58-84,3.2-84,3.2Z" transform="translate(-108.19 -51.92)"/>
</svg>
